<svg id="icon" xmlns="http://www.w3.org/2000/svg" xmlns:xlink="http://www.w3.org/1999/xlink" viewBox="0 0 556.44939 432.98553"><defs><style>.cls-1{fill:url(#未命名的渐变_73);}.cls-2{fill:url(#未命名的渐变_73-2);}.cls-3{fill:url(#未命名的渐变_73-3);}</style><radialGradient id="未命名的渐变_73" cx="268.59634" cy="497.01257" r="133.64542" gradientUnits="userSpaceOnUse"><stop offset="0" stop-color="#a23e3e"/><stop offset="1" stop-color="#681f1e"/></radialGradient><radialGradient id="未命名的渐变_73-2" cx="405.89528" cy="319.97491" r="79.92838" xlink:href="#未命名的渐变_73"/><radialGradient id="未命名的渐变_73-3" cx="558.23892" cy="457.73614" r="145.05128" xlink:href="#未命名的渐变_73"/></defs><title>定制itfss</title><path class="cls-1" d="M389.28662,479.19183a.71686.71686,0,0,0-.09412-.03259c-.04675-.01514-.08148-.02484-.08325-.02533-.03717-.01062-9.79925-2.88465-23.92883-8.18463-8.45807-3.17261-14.77435-5.825-18.359-7.33332-9.2525-3.89337-17.2362-7.56439-23.89746-10.76922-1.57281-.75678-4.99725-2.50452-11.84613-6a88.17979,88.17979,0,0,1-10.10254-5.74359,33.44858,33.44858,0,0,1-6.56415-5.43592,34.43838,34.43838,0,0,1-3.53845-4.718,37.07711,37.07711,0,0,1-3.79486-7.07691,26.648,26.648,0,0,1-1.282-16,26.29351,26.29351,0,0,1,1.84613-4.92309,35.34723,35.34723,0,0,1,5.69232-8.46155c4.41315-5.05353,8.7417-8.1239,13.1795-11.23071a112.77561,112.77561,0,0,1,11.17945-6.87183c4.68438-2.55536,8.71319-4.3645,11.62823-5.66669.00012-.00006,1.93128-.8573,3.96155-1.71789a318.86182,318.86182,0,0,1,35.84613-12.30774c.753-.20539,2.94965-.79657,5.38306-1.44092,2.85675-.75641,4.31787-1.14258,5.92468-1.53345,1.42792-.34735,3.48151-.82727,6-1.34613-1.73773.00147-4.33044.03186-7.47437.17951-2.173.10205-5.32043.29351-14.41027,1.282-7.161.77875-12.53913,1.45728-14.38465,1.69232-2.85669.36389-7.25683.92645-12.85895,1.74359-10.122,1.47644-17.80133,2.85541-23.0064,3.79486-5.16718.93262-10.00269,1.80951-16.55768,3.19233-4.87683,1.0288-8.43952,1.86-12,2.69226-8.1698,1.90966-16.63855,3.88128-26.84619,6.84619-4.68225,1.36-11.85852,3.46191-21.15381,6.84613-3.75421,1.36682-9.1908,3.35675-16.077,6.38464a163.17421,163.17421,0,0,0-21.15381,10.61536,132.07727,132.07727,0,0,0-12.69232,8.80768c2.36267.92669,5.88092,2.30316,10.15387,3.96154,9.07715,3.52295,11.928,4.57978,18,6.9231,12.5155,4.83,18.77326,7.245,26.96149,10.76923,7.1336,3.07025,12.59753,5.62176,15.26929,6.88458,7.85528,3.713,13.94848,6.58862,21.76922,11a232.50093,232.50093,0,0,1,25.07691,16.53845c1.66925,1.2948,3.67681,2.91266,6,5.03851a72.47682,72.47682,0,0,1,9,9.57691,45.9436,45.9436,0,0,1,5.69232,8.80768,38.1224,38.1224,0,0,1,3.5,11.69232,37.69911,37.69911,0,0,1-.4231,9.92309,8.38707,8.38707,0,0,1-2.0769,4.30768c-2.16022,2.44751-6.365,4.48438-6.96155,4.76923a59.02317,59.02317,0,0,1-6.73077,2.92309,151.36088,151.36088,0,0,1-20.5,5.26923,220.15961,220.15961,0,0,1-24.57691,2.80768,226.97766,226.97766,0,0,1-25.53851,0c-1.54578-.07923-3.44129-.17792-6-.38465a174.457,174.457,0,0,1-21.61536-3.0769,138.44922,138.44922,0,0,1-18.19232-4.9231,102.65181,102.65181,0,0,1-13.80768-5.74359,73.65215,73.65215,0,0,1-15.282-9.79486,66.5847,66.5847,0,0,1-11.79486-13.0769,74.23651,74.23651,0,0,0-4.359,9.641c-1.80109,4.884-4.44977,12.06653-4.45026,21.641a55.64613,55.64613,0,0,0,6.24512,25.17951,62.80189,62.80189,0,0,0,4.9231,8.1538,93.12932,93.12932,0,0,0,18.718,19.69233c3.99927,3.25634,17.65485,14.07043,42.15387,25.84613,2.11011,1.01428,9.43518,4.5036,21.8974,9.43591a523.24937,523.24937,0,0,0,54.51282,18.05127c15.39929,4.31506,27.80029,7.13971,32.08807,8.03564,1.06708.223,4.82117.99115,10.25189,2.13807.00007,0,1.61628.3413,4.741.98706.86432.17865,3.82.78814,6.50513,1.27966.20453.03747,1.01733.18585,2.09473.36444,1.01928.16895,1.53912.25513,2.21679.34082.60138.07605,1.451.16742,2.48774.22449-.65424-.3291-1.62958-.79676-2.84693-1.29322-.62286-.254-1.14465-.44854-2.73077-1.01281-1.8382-.654-2.83594-.997-3.67664-1.293-.00006-.00006-1.59674-.56226-4.51562-1.66852-10.40577-3.944-20.51276-8.25641-20.51282-8.25641-16.07111-6.85724-24.10669-10.28583-28.82056-12.51282-.00006-.00006-15.174-7.16876-33.8974-18.30774a77.52208,77.52208,0,0,1-7.02563-4.66662,87.18827,87.18827,0,0,1-8.82056-7.69232,29.07471,29.07471,0,0,1-3.02563-3.23078,15.57247,15.57247,0,0,1-3.282-6.30768,12.08548,12.08548,0,0,1-.25494-2.41046,6.39036,6.39036,0,0,1,1.28424-4.46423,12.86557,12.86557,0,0,1,1.71429-2.0484,22.11439,22.11439,0,0,1,4.33332-3.20514c5.51819-2.98724,13.58966-4.923,13.58978-4.923a114.70454,114.70454,0,0,1,13.15594-2.57647,85.23011,85.23011,0,0,1,22.71583-.52613,76.68031,76.68031,0,0,1,14.74359,3.38465,105.51523,105.51523,0,0,1,31.58978,16.76922,139.07889,139.07889,0,0,1,19.53845,17.79486,202.43911,202.43911,0,0,1,20.15387,25.48719c4.83246,7.178,8.48584,13.536,11.07691,18.359q-.45942-78.886-.91889-157.77192A.14014.14014,0,0,0,389.28662,479.19183Z" transform="translate(-146.9353 -208.66723)"/><path class="cls-2" d="M399.79584,407.66723c-.38391,1.67023-1.34143,5.63483-3.25641,13.56409-1.01746,4.213-1.86163,7.69006-2.43591,10.05127q13.416-5.553,26.832-11.10614a4.67881,4.67881,0,0,0,2.2033-1.39063c.18708-.5343.43647-1.29486.68268-2.22113a30.90094,30.90094,0,0,0,.73078-3.62823c.54986-3.82312.782-8.67938.782-8.67951.1803-3.77111.35187-7.5346.1795-12.46148-.07421-2.11994-.19928-4.09076-.26922-5.19232-.16944-2.669-.34571-4.69135-.5-6.4231-.55475-6.2243-.83209-9.33649-1.07691-11.46155-.12231-1.06158-.69421-5.95044-1.84619-12.53845-1.473-8.42407-2.22345-12.7157-4.19232-18.38458-1.03723-2.98657-2.0072-5.188-3.72235-9.08057-1.87531-4.256-2.39514-5.01477-5.70068-11.9964-3.43934-7.26416-4.81-10.52661-5.36542-11.86535a91.40952,91.40952,0,0,1-3.28845-8.86542,41.01408,41.01408,0,0,1-1.953-9.95874,35.82861,35.82861,0,0,1-.00854-3.82331,46.27664,46.27664,0,0,1,1.23077-7.61535c.69019-3.29828,1.03522-4.94739,1.49542-6.84375.66877-2.75592,1.22376-4.69263,2.33149-8.56653.90368-3.1601,1.63012-5.56592,2.1828-7.39331.538-1.77887,1.29278-4.2453,2.22107-7.18359,1.65643-5.2428,2.62817-8.34339,4.0769-12.44233.7453-2.1087,2.34839-6.64447,4.5-11.98077.48517-1.20319,1.25171-3.07587,2.38464-5.96155.92218-2.34894,1.65949-4.27978,2.141-5.55127-.79279,1.14112-1.95148,2.85535-3.26813,4.989a113.77182,113.77182,0,0,0-6.16773,11.447c-4.73248,9.90216-4.54736,8.38324-9.23077,18.2564a223.76512,223.76512,0,0,0-10.15387,24c-1.44647,4.14728-2.16974,6.22089-2.87177,9.02564a78.67253,78.67253,0,0,0-2.05133,24.51282,82.89068,82.89068,0,0,0,1.94873,12.71795,114.80729,114.80729,0,0,0,3.48719,11.58972c1.68121,4.95,3.01483,8.28693,3.69232,10.05134a135.63934,135.63934,0,0,1,6.51282,23.46148A109.74569,109.74569,0,0,1,403.5907,384.257,140.44359,140.44359,0,0,1,399.79584,407.66723Z" transform="translate(-146.9353 -208.66723)"/><path class="cls-3" d="M701.5907,466.18005c-.27051-1.10535-.79779-3.123-1.66516-5.60577a61.84618,61.84618,0,0,0-4.25788-9.52246q-.55846,1.32632-1.16345,2.68591-.48642,1.09223-.9776,2.14746c-.44671.80316-.98736,1.77618-1.4671,2.64056-1.45764,2.62635-1.72376,3.11408-1.90466,3.43634a55.385,55.385,0,0,1-6.97174,9.26154c-1.16352,1.32367-2.1048,2.30786-2.86164,3.09747-2.15362,2.24677-3.62268,3.59546-4.39807,4.28968-.86157.77136-1.33447,1.19244-2.06048,1.73309-.672.50036-1.04011.76575-1.94458,1.41449-1.43366,1.02826-2.39325,1.76257-2.62659,1.93555-10.348,7.67-25.83136,12.78771-25.83148,12.78778a117.62794,117.62794,0,0,1-16.43366,4.05731,185.29805,185.29805,0,0,1-30.16669,2.89105,232.66353,232.66353,0,0,1-41.92932-3.09381c-10.8985-1.66736-19.59466-3.68317-24.92053-5.02606-5.10431-1.287-12.23962-3.24866-20.59051-6.09052-4.58045-1.55877-7.8042-2.7962-10.034-3.655-5.9718-2.3-14.01233-5.62146-21.10254-11.202a11.92786,11.92786,0,0,1-4.33331-5.516c-.88257-2.58692-.44141-4.92829,0-7.12824a27.08762,27.08762,0,0,1,3.60687-8.70831,54.75543,54.75543,0,0,1,7.2168-9.34937,120.21471,120.21471,0,0,1,9.82727-9.59845A193.31358,193.31358,0,0,1,511.152,421.33325c7.71716-5.40247,13.75818-9.08728,20.0285-12.89679,8.92407-5.42188,15.89124-9.27423,18.05127-10.46155,8.12476-4.466,14.93787-7.81494,28.56409-14.51282,4.374-2.15,9.09753-4.426,14.83978-7.05212.00244-.0011.25415-.11621.51117-.23346,4.403-2.00879,11.19488-5.03644,21.43152-9.38971a188.56349,188.56349,0,0,0-18.93549-13.20154c-3.66772-2.23089-6.6416-3.85888-7.92352-4.55182-5.975-3.22973-10.58142-5.27465-14.885-7.17389-4.70276-2.07537-10.73608-4.59057-17.91022-7.218q-2.788-.96552-5.62823-1.89746a363.93321,363.93321,0,0,0-46.83332-11.97431,468.577,468.577,0,0,0-48.2564-6.45514c-13.44623-1.09137-26.14478-1.53723-37.97712-1.53527,12.745,2.88012,23.34559,6.041,31.34516,8.67987a265.38273,265.38273,0,0,1,26.882,10.33618,162.15315,162.15315,0,0,1,23.207,13,58.01987,58.01987,0,0,1,12.53326,11.24322,31.76834,31.76834,0,0,1,4.52258,6.93622,26.66839,26.66839,0,0,1,2.66663,10.30774A26.95786,26.95786,0,0,1,514.9635,385.563a36.72534,36.72534,0,0,1-4.30871,7.194,53.28677,53.28677,0,0,1-4.81507,5.73584c-8.29663,8.785-11.54309,11.98577-11.54315,11.98584-3.48505,3.43591-7.75061,7.59863-12.68024,12.31671-6.371,5.87579-11.84454,10.56707-15.83331,13.89428-.00012.00006-16.70941,13.93781-29.77454,22.05188-2.50964,1.5586-6.60949,3.92218-10.27679,5.79926-.27362.14-1.39691.7135-2.91022,1.42767a49.72817,49.72817,0,0,1-6.23077,2.61542,35.412,35.412,0,0,1-3.49756.9408l.24756,125.50146a110.08586,110.08586,0,0,1,3.86542-10.46149,115.44018,115.44018,0,0,1,8.30767-15.76928,134.41332,134.41332,0,0,1,12.46155-17.23072,120.803,120.803,0,0,1,9.69232-10,101.7573,101.7573,0,0,1,18.923-14.15387,94.19537,94.19537,0,0,1,25-9.92309c10.64941-2.5094,19.071-2.47,26.359-2.43591a96.32235,96.32235,0,0,1,12.06128.7445c3.34649.44715,6.28216,1.04712,9.6076,1.72669,2.41333.49322,4.29993.88183,6.85675,1.5545a60.25159,60.25159,0,0,1,8.46155,2.73718,30.81511,30.81511,0,0,1,5.34613,2.75,14.52281,14.52281,0,0,1,3.48718,2.87177,9.53649,9.53649,0,0,1,2.41028,4.79486,9.154,9.154,0,0,1-.05133,2.9231A11.1286,11.1286,0,0,1,565.001,538.257a20.89058,20.89058,0,0,1-2.33332,3.66669,66.9,66.9,0,0,1-10.1795,9.84613,123.10286,123.10286,0,0,1-10.89746,7.41028c-12.37116,7.39923-21.29846,11.76318-21.29859,11.76324-20.71234,10.12488-39.23553,17.66822-44.73986,19.89063-7.90284,3.19073-18.43879,7.31152-31.03846,11.85895,18.84357-2.74878,33.4759-5.39551,43.51758-7.35059,6.98529-1.36,13.614-2.74847,15.944-3.23913,5.34064-1.12476,14.71845-3.10584,25.23078-5.61542,17.34295-4.14026,30.779-8.04926,35.30767-9.38458,9.79364-2.88782,22.26325-6.5904,38.25641-12.56415a358.40872,358.40872,0,0,0,39.94873-17.23078,254.4981,254.4981,0,0,0,25.26819-15.11731,105.72857,105.72857,0,0,0,12.06513-9.54931c.74438-.68769,2.47509-2.308,4.58978-4.51282a82.93715,82.93715,0,0,0,8.0769-9.43591c1.057-1.46771,5.90876-8.32892,8.05127-15.17951.61841-1.97741,1.16217-4.25427,1.16217-4.25439.03559-.14893.82-3.45825,1.17121-6.13019C704.02441,476.12365,702.462,469.73993,701.5907,466.18005Z" transform="translate(-146.9353 -208.66723)"/></svg>